<?xml version="1.0" encoding="utf-8"?>
<!-- Svg Vector Icons : http://www.onlinewebfonts.com/icon -->
<!DOCTYPE svg PUBLIC "-//W3C//DTD SVG 1.1//EN" "http://www.w3.org/Graphics/SVG/1.1/DTD/svg11.dtd">
<svg version="1.1" xmlns="http://www.w3.org/2000/svg" xmlns:xlink="http://www.w3.org/1999/xlink" x="0px" y="0px" viewBox="0 0 1000 1000" enable-background="new 0 0 1000 1000" xml:space="preserve">
<metadata> Svg Vector Icons : http://www.onlinewebfonts.com/icon </metadata>
<g><path d="M651.6,813.7c0-11.8-8.5-21.3-18.9-21.3H367.4c-10.5,0-18.9,9.5-18.9,21.3v85.2H159v63.9H841v-63.9H651.6L651.6,813.7L651.6,813.7z M926.1,37.2H73.9C38.6,37.2,10,65.8,10,101.1v596.5c0,35.3,28.6,63.9,63.9,63.9h852.2c35.3,0,63.9-28.6,63.9-63.9V101.1C990,65.8,961.4,37.2,926.1,37.2L926.1,37.2z M926.1,676.3c0,11.8-9.6,21.3-21.3,21.3H95.2c-11.8,0-21.3-9.5-21.3-21.3V122.4c0-11.8,9.5-21.3,21.3-21.3h809.6c11.8,0,21.3,9.5,21.3,21.3L926.1,676.3L926.1,676.3L926.1,676.3z M707.8,635.5h115.3V300H707.8V635.5z M523.4,635.5h115.3V196.7H523.4V635.5z M177.7,635.5h115.3V506.5H177.7V635.5L177.7,635.5z M339,635.5h115.3V403.2H339V635.5z"/></g>
</svg>